<?xml version="1.0" encoding="UTF-8" ?>
<!DOCTYPE svg PUBLIC "-//W3C//DTD SVG 1.1//EN" "http://www.w3.org/Graphics/SVG/1.1/DTD/svg11.dtd">
<svg width="1921pt" height="537pt" viewBox="0 0 1921 537" version="1.1" xmlns="http://www.w3.org/2000/svg">
<g id="#fcfcfcfe">
<path fill="#fcfcfc" stroke="#fcfcfc" stroke-width="0.09375" opacity="1.00" d=" M 228.55 99.10 C 235.19 98.89 242.12 97.73 248.52 99.83 C 249.01 99.91 249.99 100.09 250.48 100.18 C 252.45 101.02 254.52 101.65 256.41 102.68 C 258.17 103.49 259.88 104.41 261.64 105.24 C 263.36 106.14 264.90 107.34 266.57 108.34 C 267.92 108.97 269.25 109.64 270.61 110.28 C 273.08 111.36 275.31 112.88 277.59 114.31 C 280.04 115.43 282.20 117.08 284.61 118.28 C 286.32 119.21 287.92 120.33 289.62 121.28 C 291.33 122.19 292.89 123.35 294.56 124.34 C 295.07 124.57 296.08 125.04 296.58 125.28 C 297.09 125.52 298.10 126.01 298.60 126.25 C 300.56 127.36 302.46 128.58 304.42 129.70 C 306.13 130.63 307.62 131.92 309.41 132.71 C 311.49 133.87 313.32 135.47 315.62 136.25 C 318.01 137.49 320.16 139.15 322.62 140.27 C 324.32 141.19 325.87 142.39 327.60 143.29 C 328.91 144.00 330.17 144.78 331.38 145.66 C 333.45 146.88 335.40 148.29 337.59 149.31 C 338.09 149.55 339.08 150.05 339.58 150.29 C 340.09 150.53 341.10 151.00 341.61 151.24 C 342.96 151.91 344.22 152.72 345.38 153.67 C 347.44 154.89 349.32 156.42 351.60 157.27 C 354.62 158.89 357.54 160.72 360.61 162.26 C 362.57 163.36 364.37 164.72 366.39 165.71 C 369.96 167.67 373.17 170.23 376.65 172.32 C 378.43 174.22 381.37 175.09 382.33 177.68 C 383.67 179.09 384.76 180.70 385.73 182.39 C 386.83 184.82 388.56 186.93 389.33 189.51 C 390.01 190.72 390.00 192.13 390.18 193.47 C 390.37 193.86 390.76 194.63 390.96 195.01 C 391.06 212.01 390.97 229.01 391.00 246.01 C 391.42 277.34 390.80 308.66 391.02 339.99 C 391.22 344.28 389.95 348.50 388.32 352.42 C 387.49 354.17 386.65 355.95 385.30 357.37 C 384.21 359.78 382.03 361.40 380.30 363.32 C 379.47 364.17 378.59 364.96 377.71 365.76 C 376.51 366.09 375.58 366.92 374.63 367.67 C 372.91 368.62 371.30 369.74 369.60 370.71 C 367.88 371.62 366.29 372.76 364.59 373.71 C 362.88 374.62 361.32 375.79 359.61 376.72 C 357.57 377.95 355.62 379.37 353.40 380.28 C 351.39 381.26 349.41 382.31 347.63 383.68 C 345.90 384.58 344.26 385.65 342.61 386.70 C 340.49 387.81 338.55 389.23 336.40 390.29 C 334.47 391.44 332.55 392.61 330.60 393.74 C 328.11 394.78 325.86 396.26 323.60 397.70 C 320.44 399.42 317.64 401.72 314.42 403.32 C 313.92 403.56 312.92 404.03 312.42 404.27 C 311.48 404.75 310.53 405.22 309.59 405.69 C 308.16 406.50 306.86 407.52 305.42 408.31 C 302.94 409.42 300.71 410.97 298.37 412.32 C 297.42 413.04 296.48 413.78 295.41 414.32 C 292.08 416.00 288.94 418.02 285.61 419.70 C 283.24 420.99 280.99 422.48 278.59 423.69 C 277.14 424.48 275.82 425.49 274.39 426.31 C 272.75 427.33 271.12 428.39 269.41 429.30 C 268.47 429.77 267.53 430.24 266.60 430.73 C 266.11 430.98 265.13 431.48 264.64 431.73 C 262.88 432.56 261.15 433.45 259.39 434.25 C 258.46 434.75 257.55 435.26 256.63 435.78 C 255.24 436.29 253.86 436.81 252.46 437.30 C 251.50 437.69 250.51 438.02 249.51 438.30 C 243.77 440.29 237.64 440.19 231.63 439.90 C 229.36 438.77 226.74 438.72 224.39 437.77 C 223.14 437.23 221.85 436.83 220.60 436.32 C 219.26 435.65 217.93 434.97 216.60 434.27 C 214.58 433.31 212.57 432.31 210.59 431.27 C 210.09 431.04 209.09 430.57 208.59 430.33 C 207.13 429.54 205.75 428.64 204.35 427.76 C 202.17 426.15 199.85 424.75 197.58 423.29 C 195.26 421.94 193.06 420.39 190.59 419.31 C 188.91 418.32 187.37 417.10 185.59 416.29 C 184.12 415.55 182.87 414.44 181.40 413.71 C 179.63 412.85 178.08 411.64 176.39 410.66 C 175.19 409.76 173.94 408.96 172.62 408.25 C 169.65 407.14 167.32 404.90 164.40 403.71 C 162.40 402.71 160.29 401.85 158.63 400.31 C 157.20 399.48 155.87 398.47 154.41 397.71 C 152.63 396.89 151.08 395.68 149.41 394.67 C 145.96 393.20 142.80 391.22 139.60 389.29 C 138.12 388.55 136.88 387.45 135.41 386.71 C 132.41 385.03 129.52 383.17 126.41 381.70 C 125.90 381.46 124.90 380.98 124.40 380.74 C 122.03 379.45 119.77 377.98 117.39 376.72 C 115.71 375.75 114.12 374.62 112.40 373.71 C 110.48 372.54 108.62 371.26 106.59 370.30 C 105.09 369.54 103.85 368.34 102.28 367.72 C 98.26 363.38 93.23 359.80 90.24 354.62 C 89.76 353.53 89.21 352.47 88.70 351.40 C 87.96 349.77 87.35 348.09 86.70 346.43 C 85.94 345.26 86.01 343.84 85.83 342.53 C 84.31 340.69 85.23 338.16 85.01 336.02 C 85.44 332.26 83.86 328.71 83.98 324.99 C 84.04 310.63 83.94 296.27 84.03 281.92 C 85.86 269.36 84.70 256.63 84.75 244.00 C 85.34 228.96 84.74 213.91 85.10 198.87 C 86.41 196.26 85.36 193.13 86.73 190.61 C 87.33 189.23 87.91 187.85 88.23 186.38 C 89.01 185.45 89.77 184.51 90.29 183.41 C 93.49 178.08 98.34 173.86 103.61 170.66 C 104.57 169.96 105.52 169.25 106.58 168.71 C 107.85 167.91 109.14 167.12 110.36 166.23 C 112.00 165.18 113.65 164.14 115.39 163.28 C 118.48 161.76 121.21 159.61 124.42 158.33 C 125.86 157.51 127.18 156.51 128.61 155.67 C 130.41 154.34 132.38 153.27 134.40 152.31 C 136.72 150.95 138.95 149.42 141.40 148.29 C 143.55 147.23 145.54 145.89 147.61 144.70 C 148.56 143.97 149.52 143.24 150.60 142.70 C 152.96 141.41 155.18 139.87 157.62 138.73 C 160.25 137.29 162.72 135.61 165.40 134.26 C 165.91 134.03 166.92 133.57 167.43 133.34 C 168.85 132.50 170.19 131.53 171.61 130.70 C 172.56 129.96 173.50 129.21 174.59 128.67 C 177.39 127.57 179.73 125.62 182.41 124.29 C 184.13 123.39 185.61 122.08 187.40 121.29 C 188.88 120.53 190.16 119.46 191.61 118.67 C 192.56 117.95 193.48 117.16 194.59 116.71 C 197.04 115.57 199.03 113.65 201.61 112.73 C 203.61 111.72 205.56 110.61 207.38 109.29 C 209.18 108.19 210.71 106.69 212.56 105.66 C 214.52 104.58 216.52 103.58 218.59 102.71 C 220.16 101.88 221.75 101.04 223.51 100.70 C 225.10 99.87 227.05 100.16 228.55 99.10 M 234.61 114.13 C 231.27 115.34 227.65 115.69 224.40 117.23 C 222.54 118.75 220.50 120.04 218.44 121.28 C 216.77 122.29 215.12 123.34 213.40 124.26 C 211.41 125.35 209.57 126.67 207.57 127.73 C 205.11 129.11 202.89 130.88 200.43 132.28 C 198.44 133.37 196.58 134.67 194.58 135.73 C 192.28 137.11 190.03 138.60 187.58 139.71 C 185.85 140.62 184.19 141.65 182.56 142.73 C 180.92 143.78 179.30 144.85 177.58 145.76 C 176.02 146.64 174.55 147.67 172.99 148.56 L 173.00 148.67 C 171.04 149.39 169.38 150.70 167.61 151.77 C 167.10 151.99 166.08 152.44 165.57 152.66 C 162.83 154.22 160.33 156.17 157.62 157.76 C 157.11 158.00 156.09 158.48 155.58 158.71 C 155.08 158.95 154.07 159.42 153.56 159.66 C 151.89 160.66 150.33 161.82 148.63 162.76 C 146.90 163.70 144.44 164.11 143.75 166.23 C 143.44 166.21 142.82 166.18 142.52 166.16 C 139.03 167.99 135.90 170.44 132.43 172.29 C 122.95 177.23 113.99 183.11 105.36 189.41 C 104.37 191.12 103.34 192.81 102.22 194.44 C 101.41 197.23 100.80 200.10 100.96 203.02 C 101.16 211.15 100.74 219.28 101.18 227.40 C 99.23 227.63 99.49 231.29 100.20 232.74 C 99.90 239.98 99.84 247.27 100.17 254.51 C 99.90 259.16 99.88 263.84 100.19 268.50 C 99.71 288.65 100.18 308.83 99.96 329.00 C 99.79 332.55 100.94 335.96 101.23 339.48 C 101.58 340.49 101.92 341.50 102.25 342.52 C 103.39 344.99 104.58 347.52 106.74 349.29 C 109.39 351.57 111.39 354.67 114.56 356.30 C 116.96 357.55 119.18 359.10 121.62 360.28 C 123.29 361.23 124.90 362.28 126.56 363.27 C 128.56 364.34 130.45 365.59 132.40 366.76 C 134.58 367.67 136.57 368.97 138.51 370.30 C 139.48 370.77 140.45 371.25 141.42 371.72 C 145.75 373.50 149.36 376.55 153.46 378.75 C 155.73 380.16 157.99 381.61 160.43 382.72 C 162.59 383.69 164.56 384.99 166.54 386.26 C 170.23 388.31 173.66 390.78 177.41 392.73 C 179.58 393.68 181.56 394.99 183.55 396.27 C 185.55 397.35 187.47 398.58 189.43 399.75 C 192.76 401.75 196.02 403.88 199.44 405.74 C 200.82 406.56 202.17 407.44 203.56 408.26 C 206.36 409.70 208.82 411.69 211.54 413.27 C 215.90 415.74 220.01 418.62 224.50 420.87 C 224.99 420.95 225.96 421.11 226.45 421.19 C 229.28 422.77 232.66 422.56 235.57 423.89 C 239.32 424.36 243.04 423.42 246.57 422.23 C 247.05 422.14 248.01 421.96 248.50 421.87 C 249.01 421.58 250.05 421.00 250.56 420.71 C 253.52 419.24 256.47 417.77 259.43 416.30 C 264.20 413.81 268.59 410.65 273.44 408.29 C 276.12 406.71 278.72 404.96 281.61 403.76 C 285.30 401.73 288.68 399.17 292.45 397.29 C 293.83 396.46 295.16 395.55 296.51 394.68 C 297.88 394.03 299.25 393.40 300.64 392.78 C 302.55 391.56 304.45 390.32 306.46 389.26 C 307.85 388.44 309.18 387.56 310.54 386.70 C 312.16 385.60 313.85 384.61 315.60 383.73 C 318.20 382.25 320.68 380.55 323.41 379.28 C 327.02 377.73 329.96 375.05 333.44 373.26 C 335.10 372.27 336.71 371.21 338.37 370.24 C 344.42 367.58 349.56 363.30 355.42 360.29 C 357.09 359.26 358.73 358.19 360.45 357.25 C 361.83 356.43 363.17 355.55 364.56 354.74 C 369.42 352.57 372.22 347.80 374.97 343.51 C 375.00 333.48 375.05 323.44 374.97 313.41 C 375.07 299.70 374.91 285.99 375.04 272.28 L 376.02 272.07 L 374.58 270.51 C 375.30 267.40 374.94 264.19 375.00 261.03 C 375.01 242.01 374.98 222.99 375.02 203.98 C 374.93 201.48 375.37 198.84 374.35 196.47 C 373.16 190.01 368.01 185.42 362.56 182.31 C 360.14 180.85 357.85 179.16 355.46 177.65 C 354.95 177.43 353.93 176.97 353.42 176.75 C 350.28 175.31 347.48 173.28 344.41 171.72 C 342.38 170.72 340.45 169.54 338.56 168.30 C 336.84 167.39 335.17 166.40 333.57 165.31 C 331.50 164.13 329.49 162.87 327.43 161.69 C 326.48 161.23 325.52 160.76 324.57 160.30 C 322.16 159.10 319.96 157.53 317.57 156.28 C 315.12 154.86 312.86 153.14 310.44 151.68 C 307.11 149.96 303.69 148.37 300.54 146.32 C 298.90 145.27 297.29 144.17 295.57 143.26 C 294.16 142.45 292.83 141.54 291.44 140.74 C 288.79 139.28 286.28 137.60 283.59 136.24 C 283.08 136.02 282.06 135.56 281.55 135.34 C 279.89 134.30 278.27 133.21 276.56 132.27 C 275.15 131.46 273.82 130.52 272.46 129.66 C 271.94 129.44 270.91 129.01 270.40 128.79 C 267.84 127.20 265.31 125.57 262.60 124.26 C 261.24 123.63 259.89 122.97 258.55 122.32 C 257.17 121.46 255.84 120.53 254.44 119.74 C 250.57 117.09 246.24 115.16 241.53 114.73 C 239.39 113.59 236.92 114.00 234.61 114.13 Z" />
</g>
<g id="#5c3909fe">
<path fill="#5c3909" stroke="#5c3909" stroke-width="0.09375" opacity="1.00" d=" M 234.61 114.13 C 236.92 114.00 239.39 113.59 241.53 114.73 C 246.24 115.16 250.57 117.09 254.44 119.74 C 255.84 120.53 257.17 121.46 258.55 122.32 C 259.89 122.97 261.24 123.63 262.60 124.26 C 265.31 125.57 267.84 127.20 270.40 128.79 C 270.91 129.01 271.94 129.44 272.46 129.66 C 273.82 130.52 275.15 131.46 276.56 132.27 C 278.27 133.21 279.89 134.30 281.55 135.34 C 282.06 135.56 283.08 136.02 283.59 136.24 C 286.28 137.60 288.79 139.28 291.44 140.74 C 292.83 141.54 294.16 142.45 295.57 143.26 C 297.29 144.17 298.90 145.27 300.54 146.32 C 303.69 148.37 307.11 149.96 310.44 151.68 C 312.86 153.14 315.12 154.86 317.57 156.28 C 319.96 157.53 322.16 159.10 324.57 160.30 C 325.52 160.76 326.48 161.23 327.43 161.69 C 329.49 162.87 331.50 164.13 333.57 165.31 C 335.17 166.40 336.84 167.39 338.56 168.30 C 340.45 169.54 342.38 170.72 344.41 171.72 C 347.48 173.28 350.28 175.31 353.42 176.75 C 353.93 176.97 354.95 177.43 355.46 177.65 C 357.85 179.16 360.14 180.85 362.56 182.31 C 368.01 185.42 373.16 190.01 374.35 196.47 C 375.37 198.84 374.93 201.48 375.02 203.98 C 374.98 222.99 375.01 242.01 375.00 261.03 C 374.94 264.19 375.30 267.40 374.58 270.51 C 374.32 270.25 373.79 269.73 373.52 269.48 C 313.54 233.84 253.67 197.99 193.68 162.36 C 186.99 158.13 179.88 154.61 173.17 150.40 C 173.13 149.97 173.04 149.11 173.00 148.67 L 172.99 148.56 C 174.55 147.67 176.02 146.64 177.58 145.76 C 179.30 144.85 180.92 143.78 182.56 142.73 C 184.19 141.65 185.85 140.62 187.58 139.71 C 190.03 138.60 192.28 137.11 194.58 135.73 C 196.58 134.67 198.44 133.37 200.43 132.28 C 202.89 130.88 205.11 129.11 207.57 127.73 C 209.57 126.67 211.41 125.35 213.40 124.26 C 215.12 123.34 216.77 122.29 218.44 121.28 C 220.50 120.04 222.54 118.75 224.40 117.23 C 227.65 115.69 231.27 115.34 234.61 114.13 M 231.42 134.62 C 228.49 135.21 225.88 136.65 223.42 138.29 C 221.77 139.33 220.11 140.34 218.41 141.28 C 216.75 142.28 215.10 143.32 213.43 144.31 C 210.78 146.00 208.09 147.61 205.45 149.32 C 204.57 149.74 203.69 150.16 202.81 150.58 C 204.79 151.44 206.67 152.50 208.46 153.70 C 210.09 154.75 211.72 155.80 213.42 156.74 C 215.10 157.72 216.74 158.78 218.43 159.74 C 220.12 160.67 221.76 161.69 223.41 162.70 C 225.49 163.83 227.51 165.08 229.57 166.27 C 231.27 167.23 232.91 168.27 234.58 169.29 C 236.23 170.29 237.88 171.31 239.58 172.25 C 241.56 173.37 243.44 174.64 245.44 175.74 C 247.10 176.73 248.72 177.79 250.41 178.74 C 252.10 179.69 253.74 180.72 255.40 181.72 C 257.49 182.85 259.51 184.10 261.58 185.27 C 263.26 186.23 264.90 187.27 266.56 188.27 C 268.23 189.27 269.88 190.30 271.58 191.25 C 273.57 192.37 275.45 193.65 277.44 194.75 C 278.83 195.55 280.18 196.43 281.56 197.26 C 283.93 198.56 286.20 200.03 288.59 201.29 C 290.25 202.29 291.89 203.32 293.58 204.26 C 295.27 205.21 296.90 206.27 298.57 207.26 C 300.54 208.41 302.45 209.65 304.45 210.74 C 305.84 211.56 307.19 212.45 308.57 213.30 C 310.22 214.31 311.88 215.32 313.59 216.26 C 315.57 217.35 317.48 218.55 319.42 219.72 C 321.14 220.62 322.82 221.61 324.44 222.68 C 326.50 223.85 328.51 225.09 330.58 226.26 C 332.28 227.20 333.90 228.27 335.55 229.31 C 336.81 230.13 338.10 230.92 339.39 231.71 C 341.48 232.85 343.50 234.10 345.58 235.27 C 347.90 236.63 350.15 238.11 352.60 239.25 C 355.00 240.71 357.28 242.40 359.98 243.31 C 360.01 233.54 360.02 223.77 359.99 214.01 C 359.59 210.42 358.99 206.81 357.90 203.36 C 354.46 197.45 348.24 193.90 342.40 190.75 C 340.06 189.42 337.86 187.84 335.40 186.74 C 333.43 185.63 331.56 184.36 329.59 183.26 C 327.21 182.00 324.96 180.52 322.58 179.27 C 320.46 178.21 318.45 176.94 316.42 175.74 C 314.45 174.61 312.56 173.36 310.57 172.26 C 308.54 171.06 306.54 169.79 304.43 168.73 C 302.42 167.67 300.49 166.50 298.57 165.30 C 296.49 164.16 294.47 162.91 292.44 161.69 C 290.55 160.44 288.60 159.29 286.58 158.27 C 284.18 157.05 281.91 155.60 279.57 154.28 C 277.90 153.28 276.27 152.23 274.59 151.27 C 272.24 149.96 269.98 148.50 267.58 147.27 C 265.13 146.16 262.94 144.57 260.59 143.26 C 257.55 141.66 254.71 139.70 251.58 138.27 C 250.23 137.62 248.89 136.96 247.55 136.30 C 247.04 136.01 246.03 135.43 245.52 135.14 C 245.03 135.04 244.06 134.85 243.57 134.75 C 239.73 133.43 235.32 133.67 231.42 134.62 Z" />
</g>
<g id="#bb9122fe">
<path fill="#bb9122" stroke="#bb9122" stroke-width="0.09375" opacity="1.00" d=" M 142.52 166.16 C 142.82 166.18 143.44 166.21 143.75 166.23 C 149.93 170.38 156.28 174.26 162.56 178.27 C 182.00 190.43 201.14 203.08 220.57 215.27 C 241.59 228.59 262.63 241.87 283.59 255.29 C 292.30 260.58 300.68 266.40 309.39 271.71 C 326.01 282.34 342.64 292.96 359.34 303.46 C 364.70 306.53 370.04 309.68 374.97 313.41 C 375.05 323.44 375.00 333.48 374.97 343.51 C 372.22 347.80 369.42 352.57 364.56 354.74 C 363.17 355.55 361.83 356.43 360.45 357.25 C 358.73 358.19 357.09 359.26 355.42 360.29 C 349.56 363.30 344.42 367.58 338.37 370.24 C 336.71 371.21 335.10 372.27 333.44 373.26 C 329.96 375.05 327.02 377.73 323.41 379.28 C 320.68 380.55 318.20 382.25 315.60 383.73 C 313.85 384.61 312.16 385.60 310.54 386.70 C 309.18 387.56 307.85 388.44 306.46 389.26 C 304.45 390.32 302.55 391.56 300.64 392.78 C 299.25 393.40 297.88 394.03 296.51 394.68 C 295.16 395.55 293.83 396.46 292.45 397.29 C 288.68 399.17 285.30 401.73 281.61 403.76 C 278.72 404.96 276.12 406.71 273.44 408.29 C 268.59 410.65 264.20 413.81 259.43 416.30 C 256.47 417.77 253.52 419.24 250.56 420.71 C 250.05 421.00 249.01 421.58 248.50 421.87 C 248.01 421.96 247.05 422.14 246.57 422.23 C 243.04 423.42 239.32 424.36 235.57 423.89 C 232.66 422.56 229.28 422.77 226.45 421.19 C 225.96 421.11 224.99 420.95 224.50 420.87 C 220.01 418.62 215.90 415.74 211.54 413.27 C 208.82 411.69 206.36 409.70 203.56 408.26 C 202.17 407.44 200.82 406.56 199.44 405.74 C 196.02 403.88 192.76 401.75 189.43 399.75 C 187.47 398.58 185.55 397.35 183.55 396.27 C 181.56 394.99 179.58 393.68 177.41 392.73 C 173.66 390.78 170.23 388.31 166.54 386.26 C 164.56 384.99 162.59 383.69 160.43 382.72 C 157.99 381.61 155.73 380.16 153.46 378.75 C 149.36 376.55 145.75 373.50 141.42 371.72 C 140.45 371.25 139.48 370.77 138.51 370.30 C 136.57 368.97 134.58 367.67 132.40 366.76 C 130.45 365.59 128.56 364.34 126.56 363.27 C 124.90 362.28 123.29 361.23 121.62 360.28 C 119.18 359.10 116.96 357.55 114.56 356.30 C 111.39 354.67 109.39 351.57 106.74 349.29 C 104.58 347.52 103.39 344.99 102.25 342.52 C 101.92 341.50 101.58 340.49 101.23 339.48 C 100.94 335.96 99.79 332.55 99.96 329.00 C 100.18 308.83 99.71 288.65 100.19 268.50 C 101.30 263.88 101.19 259.13 100.17 254.51 C 99.84 247.27 99.90 239.98 100.20 232.74 C 101.31 231.18 101.46 229.23 101.18 227.40 C 100.74 219.28 101.16 211.15 100.96 203.02 C 100.80 200.10 101.41 197.23 102.22 194.44 C 103.34 192.81 104.37 191.12 105.36 189.41 C 113.99 183.11 122.95 177.23 132.43 172.29 C 135.90 170.44 139.03 167.99 142.52 166.16 M 138.54 185.53 C 137.20 186.49 135.87 187.45 134.46 188.31 C 133.16 189.11 131.85 189.91 130.55 190.72 C 129.15 191.53 127.80 192.43 126.42 193.28 C 124.18 194.78 121.89 196.26 120.12 198.33 C 116.92 201.70 116.24 206.60 116.00 211.04 C 116.01 230.69 115.97 250.34 116.02 269.99 C 116.13 274.05 114.80 277.99 114.98 282.06 C 115.14 295.06 114.76 308.07 115.16 321.05 C 116.17 324.46 115.56 328.13 116.66 331.50 C 117.10 333.21 117.60 334.92 118.13 336.61 C 119.41 337.79 120.70 339.02 121.22 340.73 C 123.53 342.75 125.99 344.62 128.53 346.33 C 130.20 347.35 131.86 348.38 133.60 349.26 C 135.30 350.19 136.90 351.29 138.57 352.28 C 141.23 353.68 143.71 355.40 146.41 356.72 C 148.59 357.69 150.57 359.04 152.58 360.30 C 155.24 361.68 157.73 363.36 160.40 364.73 C 162.57 365.70 164.55 367.03 166.57 368.29 C 168.56 369.36 170.47 370.57 172.43 371.72 C 174.52 372.82 176.51 374.11 178.57 375.27 C 180.25 376.23 181.88 377.29 183.55 378.29 C 185.46 379.50 187.39 380.69 189.42 381.71 C 191.08 382.71 192.69 383.80 194.39 384.75 C 196.17 385.54 197.87 386.51 199.44 387.68 C 201.11 388.68 202.75 389.74 204.41 390.76 C 205.80 391.59 207.16 392.47 208.56 393.28 C 209.85 394.08 211.15 394.88 212.43 395.71 C 214.13 396.66 215.78 397.70 217.44 398.72 C 218.83 399.56 220.16 400.47 221.56 401.31 C 223.19 402.08 224.81 402.89 226.39 403.78 C 229.70 405.32 233.32 406.28 237.00 406.04 C 239.52 405.86 242.29 406.57 244.58 405.19 C 245.07 405.12 246.06 404.97 246.55 404.89 C 247.50 404.33 248.45 403.78 249.41 403.23 C 251.51 402.45 253.50 401.44 255.44 400.31 C 257.14 399.36 258.81 398.35 260.45 397.28 C 262.21 396.54 263.90 395.64 265.60 394.77 C 267.26 393.78 268.88 392.70 270.54 391.70 C 272.44 390.47 274.39 389.30 276.40 388.27 C 278.87 387.16 281.12 385.65 283.43 384.27 C 284.82 383.45 286.16 382.54 287.56 381.74 C 289.57 380.68 291.45 379.40 293.40 378.25 C 297.08 376.50 300.43 374.15 304.11 372.39 C 304.17 372.36 304.29 372.28 304.35 372.25 C 307.04 370.59 309.70 368.89 312.41 367.26 C 314.49 366.11 316.49 364.82 318.59 363.71 C 320.61 362.68 322.56 361.52 324.46 360.29 C 325.83 359.45 327.17 358.54 328.57 357.75 C 330.57 356.65 332.42 355.33 334.43 354.26 C 336.11 353.30 337.73 352.22 339.41 351.26 C 341.53 350.19 343.53 348.91 345.59 347.74 C 346.89 346.96 348.18 346.17 349.45 345.32 C 351.65 343.93 353.95 342.61 355.77 340.70 C 356.51 339.19 357.49 337.82 358.45 336.45 C 359.69 331.22 358.68 325.73 359.00 320.40 C 357.13 319.45 355.39 318.28 353.57 317.26 C 352.17 316.45 350.83 315.54 349.45 314.73 C 348.13 313.92 346.82 313.12 345.53 312.29 C 344.16 311.45 342.83 310.53 341.45 309.71 C 340.15 308.90 338.84 308.10 337.56 307.28 C 336.17 306.45 334.84 305.54 333.46 304.71 C 332.17 303.87 330.86 303.06 329.57 302.25 C 328.17 301.41 326.82 300.51 325.44 299.68 C 323.18 298.16 320.81 296.83 318.56 295.31 C 317.16 294.48 315.82 293.58 314.43 292.75 C 313.14 291.93 311.84 291.13 310.55 290.30 C 308.89 289.28 307.28 288.19 305.57 287.28 C 303.12 285.87 300.88 284.12 298.43 282.73 C 296.70 281.81 295.09 280.72 293.43 279.72 C 292.12 278.93 290.82 278.14 289.54 277.30 C 288.16 276.46 286.83 275.54 285.45 274.71 C 284.15 273.90 282.85 273.10 281.56 272.28 C 280.17 271.45 278.84 270.54 277.46 269.71 C 276.17 268.87 274.87 268.06 273.58 267.25 C 272.18 266.41 270.83 265.51 269.44 264.68 C 267.19 263.14 264.82 261.81 262.55 260.31 C 261.16 259.47 259.82 258.56 258.44 257.72 C 257.14 256.90 255.84 256.10 254.55 255.29 C 253.16 254.46 251.83 253.54 250.46 252.70 C 249.17 251.86 247.86 251.07 246.55 250.27 C 245.16 249.45 243.83 248.54 242.43 247.74 C 239.62 246.31 237.18 244.27 234.43 242.73 C 232.72 241.80 231.11 240.72 229.46 239.71 C 228.17 238.87 226.87 238.07 225.58 237.25 C 224.18 236.41 222.83 235.51 221.43 234.68 C 220.43 234.01 219.43 233.36 218.41 232.73 C 217.12 231.93 215.82 231.14 214.55 230.30 C 213.16 229.47 211.83 228.56 210.45 227.72 C 209.15 226.90 207.85 226.10 206.56 225.28 C 205.17 224.44 203.83 223.53 202.45 222.70 C 201.17 221.86 199.87 221.06 198.58 220.26 C 197.56 219.64 196.56 218.99 195.58 218.33 C 193.90 217.31 192.26 216.24 190.56 215.28 C 187.84 213.69 185.35 211.74 182.57 210.26 C 181.16 209.46 179.83 208.55 178.44 207.74 C 177.12 206.97 175.81 206.18 174.55 205.32 C 173.17 204.46 171.85 203.54 170.45 202.72 C 169.14 201.93 167.83 201.13 166.55 200.30 C 165.16 199.46 163.83 198.55 162.45 197.71 C 161.16 196.89 159.85 196.08 158.56 195.27 C 157.17 194.43 155.83 193.52 154.44 192.69 C 152.18 191.18 149.82 189.83 147.55 188.33 C 145.79 187.29 144.09 186.14 142.47 184.90 C 141.14 184.99 139.81 185.13 138.54 185.53 Z" />
</g>
<g id="#ffffffff">
<path fill="#ffffff" stroke="#ffffff" stroke-width="0.09375" opacity="1.00" d=" M 1176.62 202.61 C 1190.54 186.37 1210.79 176.07 1231.92 173.35 C 1244.17 171.83 1256.86 171.76 1268.81 175.22 C 1278.74 178.31 1287.71 183.81 1295.99 189.99 C 1298.02 191.61 1301.49 192.84 1303.36 190.29 C 1306.34 186.21 1306.50 180.89 1307.16 176.07 C 1309.16 176.07 1311.16 176.07 1313.18 176.06 C 1312.15 197.36 1312.21 218.70 1312.16 240.02 C 1310.12 240.01 1308.11 240.01 1306.11 240.01 C 1304.49 228.99 1303.35 217.59 1298.54 207.39 C 1294.61 198.89 1287.35 192.57 1279.90 187.19 C 1263.76 176.77 1240.12 175.89 1225.40 189.34 C 1211.28 202.41 1205.37 221.70 1202.48 240.18 C 1199.07 263.46 1199.38 287.47 1204.70 310.45 C 1208.24 325.62 1214.87 340.81 1226.95 351.12 C 1243.85 365.27 1271.17 362.70 1286.53 347.44 C 1291.52 343.42 1295.83 338.47 1298.48 332.58 C 1303.69 321.27 1304.53 308.65 1306.13 296.46 C 1308.13 296.48 1310.16 296.49 1312.19 296.52 C 1312.16 318.68 1312.18 340.86 1313.18 363.00 C 1311.16 363.00 1309.15 363.00 1307.16 363.00 C 1306.46 358.16 1306.61 352.67 1303.48 348.63 C 1301.40 346.40 1298.21 347.75 1296.08 349.11 C 1288.98 353.79 1281.93 358.74 1273.93 361.80 C 1258.26 368.06 1240.82 367.57 1224.45 364.76 C 1203.38 361.00 1183.26 349.76 1170.79 332.10 C 1156.18 312.01 1151.95 286.22 1153.56 261.89 C 1154.87 240.41 1162.41 218.98 1176.62 202.61 Z" />
<path fill="#ffffff" stroke="#ffffff" stroke-width="0.09375" opacity="1.00" d=" M 425.24 176.09 C 451.50 177.05 477.77 176.84 504.04 176.84 C 522.69 176.76 541.34 176.65 559.98 176.09 C 559.85 178.47 560.42 181.08 559.02 183.19 C 528.63 241.06 498.47 299.05 468.00 356.87 C 478.00 357.00 487.99 356.93 497.99 356.92 C 512.72 356.75 527.75 350.83 537.26 339.32 C 546.95 328.39 551.24 313.85 552.74 299.58 C 554.79 299.57 556.84 299.57 558.90 299.57 C 557.39 320.68 557.77 341.96 559.94 363.01 C 536.99 362.21 514.01 362.26 491.05 362.22 C 468.42 362.26 445.78 362.30 423.16 362.99 C 423.32 360.87 422.75 358.56 423.78 356.60 C 454.30 298.44 484.83 240.29 515.36 182.14 C 504.23 182.21 493.10 182.01 481.98 182.25 C 468.16 182.65 453.97 188.22 445.26 199.28 C 437.14 209.86 434.11 223.30 432.46 236.28 C 430.41 236.28 428.36 236.28 426.31 236.29 C 428.17 216.25 426.73 196.10 425.24 176.09 Z" />
<path fill="#ffffff" stroke="#ffffff" stroke-width="0.09375" opacity="1.00" d=" M 1516.17 217.21 C 1525.58 206.35 1539.98 201.54 1553.84 199.68 C 1567.38 198.10 1581.63 198.13 1594.44 203.39 C 1599.62 205.33 1604.38 208.16 1609.21 210.82 C 1611.38 211.89 1614.35 213.23 1616.49 211.37 C 1618.96 208.36 1619.09 204.23 1619.90 200.58 C 1621.89 200.58 1623.88 200.57 1625.92 200.57 C 1624.67 218.85 1624.73 237.18 1624.65 255.49 C 1622.61 255.48 1620.59 255.48 1618.59 255.48 C 1616.74 239.90 1611.00 223.74 1598.41 213.63 C 1588.58 205.63 1575.13 203.33 1562.83 205.22 C 1556.06 206.34 1549.12 209.21 1544.93 214.86 C 1539.98 221.47 1540.66 231.11 1545.27 237.71 C 1548.46 242.15 1552.53 245.92 1556.94 249.14 C 1571.90 259.45 1588.06 267.85 1603.29 277.75 C 1611.62 283.16 1619.53 289.52 1625.28 297.72 C 1636.79 312.79 1635.80 336.58 1621.78 349.75 C 1609.93 361.20 1593.02 365.20 1577.07 366.42 C 1565.63 367.15 1553.87 366.79 1542.97 362.91 C 1536.14 360.67 1529.66 357.52 1523.13 354.58 C 1520.74 353.70 1517.49 352.18 1515.39 354.37 C 1513.05 357.30 1512.90 361.27 1512.21 364.82 C 1510.20 364.81 1508.18 364.81 1506.20 364.82 C 1507.28 343.40 1507.14 321.94 1507.20 300.49 C 1509.21 300.48 1511.23 300.48 1513.28 300.48 C 1514.39 317.21 1518.81 334.79 1530.73 347.21 C 1540.88 357.96 1556.52 361.74 1570.87 360.37 C 1578.04 359.53 1585.39 356.85 1590.22 351.25 C 1595.27 345.77 1596.33 337.60 1594.64 330.56 C 1592.61 322.91 1586.53 317.23 1580.45 312.59 C 1562.38 299.38 1541.12 290.82 1524.53 275.56 C 1517.73 269.04 1511.41 261.41 1508.89 252.15 C 1505.68 240.28 1507.80 226.54 1516.17 217.21 Z" />
<path fill="#ffffff" stroke="#ffffff" stroke-width="0.09375" opacity="1.00" d=" M 740.19 202.50 C 758.52 203.83 776.94 203.33 795.29 202.51 C 823.40 237.32 851.41 272.21 879.50 307.04 C 879.47 283.04 879.55 259.04 879.46 235.05 C 879.12 227.94 878.97 219.73 873.49 214.43 C 867.73 209.32 859.59 208.78 852.32 207.78 C 852.30 206.03 852.29 204.28 852.31 202.53 C 869.99 203.41 887.75 203.73 905.43 202.54 C 905.41 204.27 905.42 206.01 905.43 207.75 C 899.57 208.75 892.67 209.87 889.21 215.31 C 885.64 221.19 885.90 228.39 885.59 235.03 C 885.54 277.85 885.57 320.67 885.57 363.49 C 880.94 363.38 876.31 363.33 871.68 363.51 C 836.38 319.82 801.20 276.02 765.94 232.29 C 765.94 264.21 765.94 296.13 765.94 328.05 C 766.03 333.74 766.15 339.57 767.96 345.02 C 769.28 348.99 772.32 352.29 776.14 353.98 C 781.48 356.39 787.39 357.03 793.15 357.74 C 793.13 359.49 793.13 361.24 793.14 363.00 C 775.49 362.09 757.77 361.78 740.13 362.98 C 740.14 361.22 740.15 359.47 740.18 357.72 C 746.25 356.79 753.50 355.46 756.74 349.56 C 759.84 343.58 759.56 336.59 759.85 330.04 C 759.87 295.69 759.93 261.33 759.82 226.98 C 759.46 221.48 759.64 214.79 754.91 211.00 C 750.58 208.11 745.11 208.25 740.13 207.76 C 740.14 206.01 740.15 204.25 740.19 202.50 Z" />
<path fill="#ffffff" stroke="#ffffff" stroke-width="0.09375" opacity="1.00" d=" M 1403.05 202.03 C 1407.06 202.43 1411.12 202.47 1415.15 202.01 C 1436.25 248.49 1457.19 295.06 1478.31 341.53 C 1481.75 348.35 1486.18 356.63 1494.57 357.77 C 1494.56 359.50 1494.56 361.24 1494.59 362.98 C 1469.21 361.84 1443.76 361.99 1418.38 362.99 C 1418.37 361.24 1418.37 359.49 1418.39 357.74 C 1423.29 357.33 1428.69 357.09 1432.74 353.95 C 1436.86 350.29 1435.33 344.14 1433.72 339.61 C 1428.98 328.16 1423.80 316.90 1418.92 305.51 C 1400.39 305.51 1381.86 305.48 1363.33 305.52 C 1358.97 315.68 1354.03 325.91 1352.92 337.06 C 1352.38 342.43 1353.25 348.69 1357.72 352.29 C 1362.85 356.25 1369.55 357.19 1375.84 357.71 C 1375.84 359.47 1375.84 361.23 1375.87 363.00 C 1358.61 362.37 1341.28 361.60 1324.04 362.99 C 1324.01 361.27 1323.99 359.55 1323.99 357.84 C 1328.96 356.57 1333.18 353.34 1336.22 349.27 C 1341.74 341.98 1345.58 333.59 1349.22 325.25 C 1367.16 284.18 1385.10 243.10 1403.05 202.03 M 1365.68 300.21 C 1382.65 300.22 1399.61 300.22 1416.59 300.21 C 1408.15 280.90 1399.59 261.64 1391.23 242.28 C 1382.71 261.59 1374.19 280.90 1365.68 300.21 Z" />
<path fill="#ffffff" stroke="#ffffff" stroke-width="0.09375" opacity="1.00" d=" M 579.91 202.52 C 608.94 203.26 638.00 203.27 667.04 203.28 C 682.77 203.22 698.50 203.20 714.21 202.53 C 712.73 218.47 711.60 234.58 713.18 250.57 C 711.17 250.59 709.16 250.60 707.16 250.62 C 704.67 237.46 700.72 222.95 689.26 214.72 C 679.03 207.48 665.91 208.50 654.03 208.64 C 650.04 208.88 645.17 209.09 642.64 212.69 C 640.20 216.26 640.26 220.83 640.10 224.98 C 640.10 243.19 640.07 261.40 640.12 279.61 C 648.69 279.21 658.21 281.11 665.78 275.97 C 673.57 270.12 677.04 260.27 679.16 251.10 C 681.19 251.10 683.22 251.11 685.27 251.13 C 683.56 271.84 684.37 292.68 685.99 313.37 C 683.97 313.37 681.97 313.37 679.97 313.38 C 678.38 304.22 674.95 294.46 667.11 288.82 C 659.17 283.40 649.13 285.19 640.09 284.88 C 640.09 301.91 640.10 318.94 640.09 335.96 C 640.14 340.86 639.82 345.91 641.45 350.61 C 642.35 353.19 644.54 355.25 647.20 355.93 C 652.35 357.31 657.75 356.84 663.02 356.94 C 674.44 357.36 687.01 355.95 695.77 347.85 C 706.34 338.02 710.01 323.33 712.44 309.62 C 714.43 309.62 716.43 309.62 718.44 309.62 C 716.96 327.40 717.90 345.27 719.50 363.00 C 698.00 362.18 676.48 362.24 654.97 362.22 C 629.95 362.27 604.93 362.35 579.92 363.00 C 579.90 361.25 579.89 359.51 579.88 357.77 C 585.01 357.23 590.78 357.45 595.11 354.21 C 599.60 350.17 599.22 343.51 599.58 337.99 C 599.65 301.31 599.64 264.62 599.59 227.94 C 599.26 222.38 599.58 215.89 595.39 211.63 C 591.12 208.04 585.14 208.30 579.91 207.78 C 579.90 206.02 579.90 204.27 579.91 202.52 Z" />
<path fill="#ffffff" stroke="#ffffff" stroke-width="0.09375" opacity="1.00" d=" M 919.21 202.52 C 957.80 203.53 996.42 203.30 1035.02 203.17 C 1048.62 203.06 1062.24 202.95 1075.84 202.52 C 1074.01 222.17 1073.12 241.98 1074.80 261.68 C 1072.77 261.67 1070.76 261.67 1068.75 261.67 C 1066.27 249.31 1063.59 236.70 1057.46 225.55 C 1053.59 218.52 1047.29 212.62 1039.45 210.41 C 1032.42 208.17 1024.97 208.59 1017.70 208.57 C 1017.73 250.72 1017.65 292.88 1017.74 335.03 C 1018.06 341.57 1018.14 349.71 1024.18 353.81 C 1030.20 357.47 1037.59 357.22 1044.39 357.74 C 1044.38 359.49 1044.38 361.24 1044.39 363.00 C 1027.96 362.23 1011.51 362.25 995.07 362.22 C 980.27 362.28 965.46 362.24 950.67 363.00 C 950.66 361.24 950.66 359.48 950.67 357.74 C 956.32 357.43 962.09 357.25 967.52 355.47 C 971.29 354.27 974.40 351.27 975.61 347.48 C 977.23 342.48 977.28 337.14 977.36 331.94 C 977.36 290.82 977.36 249.69 977.36 208.57 C 967.40 208.43 956.61 208.17 947.98 213.96 C 938.48 220.35 934.06 231.57 930.93 242.12 C 929.04 248.54 927.65 255.10 926.43 261.67 C 924.41 261.67 922.40 261.67 920.41 261.68 C 921.80 241.98 921.16 222.17 919.21 202.52 Z" />
<path fill="#ffffff" stroke="#ffffff" stroke-width="0.09375" opacity="1.00" d=" M 1652.91 202.53 C 1679.52 203.64 1706.20 203.53 1732.82 202.52 C 1732.81 204.27 1732.81 206.01 1732.84 207.76 C 1727.81 208.27 1722.26 208.07 1717.92 211.02 C 1713.44 214.53 1713.54 220.83 1713.17 225.97 C 1712.99 243.50 1713.14 261.04 1713.10 278.57 C 1735.70 278.56 1758.30 278.55 1780.90 278.57 C 1780.85 261.02 1781.02 243.46 1780.81 225.91 C 1780.43 220.74 1780.41 214.46 1775.89 210.99 C 1771.52 208.13 1766.04 208.24 1761.04 207.77 C 1761.03 206.02 1761.01 204.27 1761.05 202.52 C 1787.71 203.53 1814.44 203.65 1841.11 202.52 C 1841.09 204.27 1841.09 206.02 1841.11 207.78 C 1835.29 208.39 1827.97 207.91 1824.12 213.19 C 1820.92 218.50 1821.46 225.04 1821.25 231.01 C 1821.25 264.33 1821.25 297.64 1821.25 330.96 C 1821.44 337.79 1820.65 345.12 1823.64 351.49 C 1827.14 357.52 1835.05 357.13 1841.11 357.75 C 1841.08 359.49 1841.09 361.25 1841.11 363.00 C 1814.45 361.85 1787.73 361.96 1761.07 363.01 C 1761.03 361.26 1760.99 359.51 1760.98 357.77 C 1766.68 357.12 1773.79 357.60 1777.77 352.64 C 1781.03 347.79 1780.62 341.58 1780.90 336.00 C 1780.92 318.61 1780.90 301.23 1780.91 283.85 C 1758.30 283.85 1735.70 283.85 1713.09 283.85 C 1713.09 300.23 1713.10 316.62 1713.09 333.01 C 1713.28 339.35 1712.65 346.24 1715.79 352.01 C 1719.46 357.52 1726.95 357.17 1732.81 357.71 C 1732.80 359.47 1732.81 361.23 1732.84 363.00 C 1706.22 361.98 1679.53 361.85 1652.91 363.00 C 1652.89 361.24 1652.88 359.49 1652.90 357.75 C 1658.79 357.12 1666.39 357.59 1670.05 351.96 C 1673.04 346.17 1672.42 339.37 1672.63 333.05 C 1672.58 297.69 1672.70 262.34 1672.57 226.98 C 1672.21 221.54 1672.39 214.99 1667.83 211.14 C 1663.51 208.11 1657.94 208.25 1652.91 207.78 C 1652.89 206.02 1652.89 204.27 1652.91 202.53 Z" />
</g>
<g id="#a68f54cb">
<path fill="#a68f54" stroke="#a68f54" stroke-width="0.09375" opacity="0.80" d=" M 100.20 232.74 C 99.49 231.29 99.23 227.63 101.18 227.40 C 101.46 229.23 101.31 231.18 100.20 232.74 Z" />
</g>
<g id="#a88323e2">
<path fill="#a88323" stroke="#a88323" stroke-width="0.09375" opacity="0.89" d=" M 100.17 254.51 C 101.19 259.13 101.30 263.88 100.19 268.50 C 99.88 263.84 99.90 259.16 100.17 254.51 Z" />
</g>
<g id="#785311ff">
<path fill="#785311" stroke="#785311" stroke-width="0.09375" opacity="1.00" d=" M 304.11 372.39 C 304.17 372.36 304.29 372.28 304.35 372.25 C 304.29 372.28 304.17 372.36 304.11 372.39 Z" />
</g>
</svg>
